<svg width="197" height="21" viewBox="0 0 197 21" fill="none" xmlns="http://www.w3.org/2000/svg">
<g id="Layer_1" clip-path="url(#clip0_503_275)">
<path id="Vector" d="M6.77957 4.25656H0.409973V1.17529H16.716V4.25656H10.3464V20.792H6.77957V4.25656Z" fill="#D3134A"/>
<path id="Vector_2" d="M31.8154 5.82471V20.7921H28.5465V18.8862C27.9961 19.5594 27.2876 20.0925 26.4813 20.4398C25.6466 20.8063 24.741 20.9924 23.8261 20.9856C21.8593 20.9856 20.3173 20.4311 19.2001 19.3222C18.083 18.2133 17.5234 16.5605 17.5214 14.3639V5.82471H20.9437V13.8874C20.9437 15.235 21.2387 16.239 21.8288 16.8994C22.4188 17.5597 23.2675 17.8947 24.3749 17.9043C24.9185 17.9301 25.4615 17.8402 25.9662 17.6408C26.471 17.4414 26.9255 17.1372 27.2986 16.7492C28.0204 15.9791 28.3823 14.8635 28.3843 13.4023V5.82471H31.8154Z" fill="#D3134A"/>
<path id="Vector_3" d="M43.702 5.65723V8.98685C43.4397 8.93485 43.173 8.90682 42.9054 8.9031C41.5699 8.9031 40.5265 9.30065 39.7752 10.0958C39.0239 10.8909 38.6492 12.0335 38.6512 13.5236V20.7921H35.223V5.82472H38.4918V8.00789C39.4753 6.44078 41.212 5.65723 43.702 5.65723Z" fill="#D3134A"/>
<path id="Vector_4" d="M57.4678 6.60726C58.5949 7.23961 59.5156 8.17186 60.1231 9.29579C60.7828 10.5305 61.1136 11.9081 61.0849 13.3012C61.1112 14.7011 60.7785 16.0852 60.1172 17.3267C59.5127 18.4566 58.5916 19.3942 57.4619 20.0297C56.2931 20.6759 54.9688 21.004 53.6266 20.9798C52.6794 20.9918 51.74 20.8109 50.8681 20.4484C50.0499 20.0938 49.3364 19.5425 48.7941 18.8457V20.7921H45.5134V0H48.9446V7.64398C49.511 7.00442 50.2167 6.49722 51.0097 6.15965C51.8385 5.8178 52.7303 5.64676 53.6296 5.65718C54.9726 5.63388 56.2976 5.96186 57.4678 6.60726ZM56.3704 16.6885C57.1846 15.8318 57.5918 14.7027 57.5918 13.3012C57.5918 11.8996 57.1846 10.7705 56.3704 9.91378C55.9764 9.49199 55.4942 9.15832 54.9565 8.93555C54.4189 8.71279 53.8385 8.60616 53.2549 8.62294C52.4735 8.61353 51.7043 8.81324 51.0304 9.20049C50.3637 9.59321 49.8221 10.1603 49.4668 10.8379C49.0653 11.5997 48.8626 12.4469 48.8767 13.304C48.8631 14.1602 49.0658 15.0063 49.4668 15.7673C49.8199 16.4465 50.362 17.0141 51.0304 17.4047C51.7038 17.7932 52.4733 17.993 53.2549 17.9823C53.8386 17.9983 54.4191 17.891 54.9567 17.6678C55.4943 17.4445 55.9765 17.1105 56.3704 16.6885Z" fill="#D3134A"/>
<path id="Vector_5" d="M65.8259 19.9921C64.654 19.3567 63.6888 18.4109 63.0409 17.2632C62.3597 16.0506 62.0139 14.6848 62.0378 13.3011C62.0124 11.9219 62.3583 10.5604 63.0409 9.35352C63.6927 8.21309 64.6574 7.27383 65.8259 6.64189C67.0651 5.99913 68.4462 5.66309 69.8486 5.66309C71.251 5.66309 72.6321 5.99913 73.8713 6.64189C75.0406 7.2754 76.0054 8.21674 76.6563 9.3593C77.3375 10.5667 77.6833 11.9278 77.6594 13.3069C77.6819 14.6904 77.3362 16.0558 76.6563 17.2689C76.0075 18.4146 75.0424 19.3583 73.8713 19.9921C72.6321 20.6349 71.251 20.9709 69.8486 20.9709C68.4462 20.9709 67.0651 20.6349 65.8259 19.9921ZM72.9655 16.6885C73.7896 15.8318 74.2007 14.7027 74.1987 13.3011C74.1968 11.8996 73.7857 10.7705 72.9655 9.91375C72.5679 9.49264 72.0829 9.15961 71.5431 8.93698C71.0032 8.71435 70.4209 8.60727 69.8353 8.62291C69.2517 8.60613 68.6713 8.71276 68.1337 8.93553C67.596 9.1583 67.1138 9.49196 66.7199 9.91375C65.9056 10.7705 65.4985 11.8996 65.4985 13.3011C65.4985 14.7027 65.9056 15.8318 66.7199 16.6885C67.1143 17.1095 67.5967 17.4424 68.1343 17.6646C68.6719 17.8869 69.252 17.9932 69.8353 17.9765C70.4205 17.9912 71.0022 17.8839 71.5419 17.6619C72.0816 17.4398 72.5668 17.1081 72.9655 16.6885Z" fill="#D3134A"/>
<path id="Vector_6" d="M91.8678 1.20422H96.1515V20.7921H91.8678V13.0759H84.2473V20.7921H79.9635V1.20422H84.2473V9.37955H91.8678V1.20422Z" fill="#033A89"/>
<path id="Vector_7" d="M112.166 18.5916C111.405 19.3598 110.494 19.9692 109.486 20.3831C108.479 20.7971 107.396 21.0069 106.303 21C104.061 21 102.208 20.2954 100.745 18.8862C99.2818 17.4769 98.5491 15.5874 98.5472 13.2174C98.5472 10.8456 99.2936 8.95988 100.786 7.56026C101.481 6.88456 102.306 6.35092 103.213 5.99048C104.12 5.63003 105.091 5.44998 106.07 5.46084C107.977 5.4148 109.828 6.0855 111.245 7.33502C112.663 8.58832 113.372 10.3066 113.372 12.4897V14.7278H102.613C102.672 15.131 102.814 15.5181 103.031 15.8657C103.249 16.2132 103.536 16.5138 103.875 16.7492C104.568 17.2658 105.417 17.5422 106.289 17.5347C106.959 17.5541 107.626 17.4309 108.244 17.1737C108.861 16.9164 109.414 16.5312 109.864 16.0446L112.166 18.5916ZM108.212 9.65969C107.64 9.17446 106.904 8.91505 106.147 8.93196C105.336 8.93028 104.548 9.19689 103.911 9.68856C103.58 9.93033 103.304 10.237 103.1 10.5891C102.897 10.9411 102.771 11.3307 102.731 11.7331H109.221C109.176 10.9391 108.814 10.1944 108.212 9.65969Z" fill="#033A89"/>
<path id="Vector_8" d="M127.784 20.7921H123.913V18.9554C122.851 20.3185 121.538 21 119.975 21C118.53 21.0433 117.122 20.5478 116.036 19.6138C114.974 18.6898 114.443 17.4576 114.443 15.9175C114.443 14.3773 114.992 13.2222 116.089 12.4521C117.187 11.6821 118.688 11.297 120.591 11.297H123.666V11.2133C123.666 9.60766 122.834 8.80486 121.17 8.80486C120.394 8.81604 119.626 8.96374 118.904 9.24091C118.177 9.49189 117.495 9.85557 116.886 10.3181L115.048 7.60065C116.953 6.17588 119.291 5.41738 121.689 5.44636C123.483 5.44636 124.947 5.90359 126.082 6.81806C127.217 7.73252 127.784 9.17642 127.784 11.1497V20.7921ZM123.639 15.0367V14.309H121.058C119.411 14.309 118.588 14.8317 118.588 15.8771C118.573 16.1161 118.62 16.3551 118.723 16.5724C118.826 16.7896 118.982 16.9784 119.178 17.1217C119.677 17.4426 120.27 17.5956 120.866 17.5577C121.575 17.5651 122.262 17.321 122.801 16.8704C123.075 16.6482 123.293 16.3672 123.439 16.0492C123.584 15.7313 123.653 15.3848 123.639 15.0367Z" fill="#033A89"/>
<path id="Vector_9" d="M134.564 20.7921H130.433V0H134.564V20.7921Z" fill="#033A89"/>
<path id="Vector_10" d="M142.279 8.73558V15.4843C142.248 15.9745 142.405 16.4583 142.718 16.8416C142.843 16.9945 143.002 17.118 143.182 17.203C143.362 17.2879 143.56 17.3322 143.76 17.3325C144.149 17.3263 144.531 17.2257 144.872 17.0398C145.212 16.8539 145.5 16.5883 145.71 16.2669L147.247 19.2096C145.967 20.4032 144.616 21 143.196 21C142.529 21.0134 141.867 20.8938 141.248 20.6486C140.63 20.4033 140.069 20.0375 139.6 19.5734C138.617 18.6205 138.125 17.3229 138.125 15.6807V8.75002H136.417V5.71206H138.145V1.20422H142.291V5.71206H145.857V8.73558H142.279Z" fill="#033A89"/>
<path id="Vector_11" d="M152.463 12.6572V20.7921H148.333V0H152.463V7.39274C153.708 6.10479 155.103 5.46081 156.649 5.46081C157.387 5.44938 158.118 5.59359 158.793 5.88362C159.468 6.17365 160.071 6.60268 160.561 7.1415C161.62 8.26004 162.15 9.75303 162.152 11.6205V20.7921H158.021V12.5446C158.021 10.2343 157.188 9.07921 155.522 9.07921C155.118 9.07824 154.719 9.15847 154.348 9.31495C153.977 9.47142 153.642 9.7008 153.366 9.98886C152.766 10.5914 152.465 11.4809 152.463 12.6572Z" fill="#033A89"/>
<path id="Vector_12" d="M164.801 20.5957C164.715 20.5082 164.649 20.4049 164.604 20.2919C164.559 20.1789 164.538 20.0584 164.541 19.9373C164.538 19.815 164.561 19.6933 164.608 19.58C164.655 19.4667 164.726 19.3642 164.816 19.2789C164.898 19.1956 164.996 19.1293 165.104 19.0836C165.212 19.038 165.329 19.0141 165.447 19.0132C165.567 19.0109 165.687 19.0334 165.797 19.0792C165.908 19.125 166.008 19.193 166.09 19.2789C166.177 19.3659 166.244 19.469 166.289 19.5821C166.335 19.6952 166.356 19.816 166.353 19.9373C166.355 20.0586 166.334 20.1792 166.289 20.2922C166.244 20.4051 166.176 20.5083 166.09 20.5957C166.006 20.68 165.906 20.747 165.795 20.7927C165.685 20.8384 165.566 20.862 165.446 20.862C165.325 20.862 165.206 20.8384 165.096 20.7927C164.985 20.747 164.885 20.68 164.801 20.5957Z" fill="#282828"/>
<path id="Vector_13" d="M182.411 6.15963V20.7921H181.092V17.6415C180.651 18.6295 179.914 19.4639 178.98 20.0354C177.988 20.625 176.845 20.9255 175.684 20.9018C173.82 20.9018 172.357 20.3704 171.294 19.3077C170.232 18.245 169.701 16.7145 169.701 14.7161V6.15963H171.073V14.5891C171.073 16.2313 171.485 17.4826 172.309 18.3432C173.133 19.2038 174.296 19.635 175.797 19.6369C177.403 19.6369 178.682 19.1239 179.632 18.0977C180.582 17.0716 181.053 15.6903 181.045 13.9538V6.15674L182.411 6.15963Z" fill="#282828"/>
<path id="Vector_14" d="M187.456 20.356C186.555 20.0808 185.722 19.6234 185.013 19.0132L185.65 17.9043C186.321 18.4562 187.089 18.8829 187.916 19.1633C188.842 19.5012 189.822 19.6724 190.81 19.6687C192.256 19.6687 193.322 19.4261 194.009 18.941C194.34 18.7159 194.608 18.4127 194.788 18.0594C194.968 17.7061 195.054 17.314 195.038 16.9195C195.051 16.6538 195.008 16.3883 194.911 16.1397C194.814 15.8912 194.665 15.6651 194.475 15.4756C194.083 15.1122 193.609 14.8441 193.091 14.693C192.341 14.4735 191.58 14.2923 190.81 14.1501C189.88 13.9954 188.962 13.7704 188.067 13.4773C187.376 13.2388 186.76 12.8312 186.276 12.2933C185.78 11.7504 185.535 11.0053 185.535 10.0524C185.526 9.4992 185.649 8.95156 185.894 8.45317C186.14 7.95478 186.501 7.51944 186.949 7.1819C187.891 6.4253 189.231 6.047 190.97 6.047C191.89 6.04879 192.805 6.18107 193.687 6.43974C194.478 6.65115 195.223 7.00251 195.885 7.47645L195.254 8.59691C194.648 8.15775 193.969 7.82547 193.247 7.61507C192.5 7.39271 191.724 7.27982 190.943 7.28008C189.606 7.28008 188.599 7.53228 187.922 8.03668C187.601 8.26208 187.34 8.56084 187.163 8.90705C186.986 9.25327 186.899 9.63649 186.907 10.0235C186.892 10.3043 186.936 10.5852 187.038 10.8482C187.139 11.1113 187.296 11.3507 187.497 11.5511C187.899 11.9251 188.384 12.2028 188.913 12.3626C189.69 12.5943 190.477 12.7871 191.274 12.9401C192.179 13.0965 193.073 13.3155 193.947 13.5957C194.618 13.8181 195.218 14.2083 195.687 14.7277C196.193 15.3336 196.448 16.1036 196.401 16.8849C196.417 17.4511 196.291 18.0126 196.034 18.52C195.777 19.0275 195.396 19.4655 194.926 19.7958C193.943 20.5235 192.552 20.8873 190.754 20.8873C189.632 20.8933 188.517 20.7137 187.456 20.356Z" fill="#282828"/>
</g>
<defs>
<clipPath id="clip0_503_275">
<rect width="196" height="21" fill="white" transform="translate(0.409973)"/>
</clipPath>
</defs>
</svg>
